<svg width="24" height="24" viewBox="0 0 24 24" fill="none" xmlns="http://www.w3.org/2000/svg">
<g opacity="0.4" clip-path="url(#clip0_250_3819)">
<path d="M9.89039 7.2655C4.46259 7.2655 4.60908e-07 10.998 4.60908e-07 15.5861C4.60908e-07 17.4201 0.711375 19.284 2.01595 20.7286L0.173719 22.8338C0.0847783 22.9354 0.0270418 23.0605 0.0074362 23.1941C-0.0121694 23.3277 0.00718867 23.4642 0.063188 23.587C0.118904 23.7101 0.208897 23.8144 0.322393 23.8876C0.435889 23.9608 0.568076 23.9997 0.703125 23.9997H10.5935C14.6011 23.9997 19.7808 20.5488 19.7808 15.5861C19.7808 10.998 15.3182 7.2655 9.89039 7.2655ZM5.62486 16.8749C4.84964 16.8749 4.21866 16.2438 4.21866 15.4687C4.21866 14.6935 4.84969 14.0625 5.62486 14.0625C6.40003 14.0625 7.03106 14.6935 7.03106 15.4687C7.03111 16.2438 6.40008 16.8749 5.62486 16.8749ZM9.89039 16.8749C9.11517 16.8749 8.48419 16.2438 8.48419 15.4687C8.48419 14.6935 9.11522 14.0625 9.89039 14.0625C10.6656 14.0625 11.2966 14.6935 11.2966 15.4687C11.2966 16.2438 10.6656 16.8749 9.89039 16.8749ZM14.1559 16.8749C13.3807 16.8749 12.7497 16.2438 12.7497 15.4687C12.7497 14.6935 13.3808 14.0625 14.1559 14.0625C14.9311 14.0625 15.5621 14.6935 15.5621 15.4687C15.5621 16.2438 14.9311 16.8749 14.1559 16.8749Z" fill="black"/>
<path d="M23.8299 14.3075L22.1745 12.376C23.3561 11.0426 23.9995 9.41663 23.9995 7.73443C23.9995 3.46979 19.899 0.000244141 14.8591 0.000244141C10.3017 0.000244141 6.42977 2.84035 5.74609 6.53696C7.01772 6.10487 8.4438 5.85924 9.8905 5.85924C16.0477 5.85924 21.1063 10.1598 21.1803 15.4686H23.2964C23.897 15.4687 24.2196 14.7614 23.8299 14.3075Z" fill="black"/>
</g>
<defs>
<clipPath id="clip0_250_3819">
<rect width="24" height="24" fill="white"/>
</clipPath>
</defs>
</svg>
